<svg aria-hidden="true" style="position: absolute; width: 0; height: 0; overflow: hidden;" version="1.1" xmlns="http://www.w3.org/2000/svg" xmlns:xlink="http://www.w3.org/1999/xlink">
<defs>
<symbol id="icon-phone-menu" viewBox="0 0 32 32">
<path d="M4.799 8.001c0-0.424 0.169-0.831 0.469-1.131s0.707-0.469 1.131-0.469h19.2c0.424 0 0.831 0.169 1.131 0.469s0.469 0.707 0.469 1.131-0.169 0.831-0.469 1.131c-0.3 0.3-0.707 0.469-1.131 0.469h-19.2c-0.424 0-0.831-0.169-1.131-0.469s-0.469-0.707-0.469-1.131z"></path>
<path d="M4.799 16.001c0-0.424 0.169-0.831 0.469-1.131s0.707-0.469 1.131-0.469h19.2c0.424 0 0.831 0.169 1.131 0.469s0.469 0.707 0.469 1.131c0 0.424-0.169 0.831-0.469 1.131s-0.707 0.469-1.131 0.469h-19.2c-0.424 0-0.831-0.169-1.131-0.469s-0.469-0.707-0.469-1.131z"></path>
<path d="M4.799 24.001c0-0.424 0.169-0.831 0.469-1.131s0.707-0.469 1.131-0.469h19.2c0.424 0 0.831 0.169 1.131 0.469s0.469 0.707 0.469 1.131c0 0.424-0.169 0.831-0.469 1.131s-0.707 0.469-1.131 0.469h-19.2c-0.424 0-0.831-0.169-1.131-0.469s-0.469-0.707-0.469-1.131z"></path>
</symbol>
<symbol id="icon-instagram" viewBox="0 0 32 32">
<path d="M16 2.881c4.275 0 4.781 0.019 6.462 0.094 1.563 0.069 2.406 0.331 2.969 0.55 0.744 0.288 1.281 0.638 1.837 1.194 0.563 0.563 0.906 1.094 1.2 1.838 0.219 0.563 0.481 1.412 0.55 2.969 0.075 1.688 0.094 2.194 0.094 6.463s-0.019 4.781-0.094 6.463c-0.069 1.563-0.331 2.406-0.55 2.969-0.288 0.744-0.637 1.281-1.194 1.837-0.563 0.563-1.094 0.906-1.837 1.2-0.563 0.219-1.413 0.481-2.969 0.55-1.688 0.075-2.194 0.094-6.463 0.094s-4.781-0.019-6.463-0.094c-1.563-0.069-2.406-0.331-2.969-0.55-0.744-0.288-1.281-0.637-1.838-1.194-0.563-0.563-0.906-1.094-1.2-1.837-0.219-0.563-0.481-1.413-0.55-2.969-0.075-1.688-0.094-2.194-0.094-6.463s0.019-4.781 0.094-6.463c0.069-1.563 0.331-2.406 0.55-2.969 0.288-0.744 0.638-1.281 1.194-1.838 0.563-0.563 1.094-0.906 1.838-1.2 0.563-0.219 1.412-0.481 2.969-0.55 1.681-0.075 2.188-0.094 6.463-0.094zM16 0c-4.344 0-4.887 0.019-6.594 0.094-1.7 0.075-2.869 0.35-3.881 0.744-1.056 0.412-1.95 0.956-2.837 1.85-0.894 0.888-1.438 1.781-1.85 2.831-0.394 1.019-0.669 2.181-0.744 3.881-0.075 1.713-0.094 2.256-0.094 6.6s0.019 4.887 0.094 6.594c0.075 1.7 0.35 2.869 0.744 3.881 0.413 1.056 0.956 1.95 1.85 2.837 0.887 0.887 1.781 1.438 2.831 1.844 1.019 0.394 2.181 0.669 3.881 0.744 1.706 0.075 2.25 0.094 6.594 0.094s4.888-0.019 6.594-0.094c1.7-0.075 2.869-0.35 3.881-0.744 1.050-0.406 1.944-0.956 2.831-1.844s1.438-1.781 1.844-2.831c0.394-1.019 0.669-2.181 0.744-3.881 0.075-1.706 0.094-2.25 0.094-6.594s-0.019-4.887-0.094-6.594c-0.075-1.7-0.35-2.869-0.744-3.881-0.394-1.063-0.938-1.956-1.831-2.844-0.887-0.887-1.781-1.438-2.831-1.844-1.019-0.394-2.181-0.669-3.881-0.744-1.712-0.081-2.256-0.1-6.6-0.1v0z"></path>
<path d="M16 7.781c-4.537 0-8.219 3.681-8.219 8.219s3.681 8.219 8.219 8.219 8.219-3.681 8.219-8.219c0-4.537-3.681-8.219-8.219-8.219zM16 21.331c-2.944 0-5.331-2.387-5.331-5.331s2.387-5.331 5.331-5.331c2.944 0 5.331 2.387 5.331 5.331s-2.387 5.331-5.331 5.331z"></path>
<path d="M26.462 7.456c0 1.060-0.859 1.919-1.919 1.919s-1.919-0.859-1.919-1.919c0-1.060 0.859-1.919 1.919-1.919s1.919 0.859 1.919 1.919z"></path>
</symbol>
<symbol id="icon-twitter" viewBox="0 0 24 24">
<path d="M20.833 5.262c-0.186 0.242-0.391 0.475-0.616 0.696-0.233 0.232-0.347 0.567-0.278 0.908 0.037 0.182 0.060 0.404 0.061 0.634 0 5.256-2.429 8.971-5.81 10.898-2.647 1.509-5.938 1.955-9.222 1.12 1.245-0.361 2.46-0.921 3.593-1.69 0.147-0.099 0.273-0.243 0.352-0.421 0.224-0.505-0.003-1.096-0.508-1.32-2.774-1.233-4.13-2.931-4.769-4.593-0.417-1.084-0.546-2.198-0.52-3.227 0.021-0.811 0.138-1.56 0.278-2.182 0.394 0.343 0.803 0.706 1.235 1.038 2.051 1.577 4.624 2.479 7.395 2.407 0.543-0.015 0.976-0.457 0.976-1v-1.011c-0.002-0.179 0.009-0.357 0.034-0.533 0.113-0.806 0.504-1.569 1.162-2.141 0.725-0.631 1.636-0.908 2.526-0.846s1.753 0.463 2.384 1.188c0.252 0.286 0.649 0.416 1.033 0.304 0.231-0.067 0.463-0.143 0.695-0.228zM22.424 2.183c-0.74 0.522-1.523 0.926-2.287 1.205-0.931-0.836-2.091-1.302-3.276-1.385-1.398-0.097-2.836 0.339-3.977 1.332-1.036 0.901-1.652 2.108-1.83 3.372-0.037 0.265-0.055 0.532-0.054 0.8-1.922-0.142-3.693-0.85-5.15-1.97-0.775-0.596-1.462-1.309-2.034-2.116-0.32-0.45-0.944-0.557-1.394-0.237-0.154 0.109-0.267 0.253-0.335 0.409 0 0-0.132 0.299-0.285 0.76-0.112 0.337-0.241 0.775-0.357 1.29-0.163 0.722-0.302 1.602-0.326 2.571-0.031 1.227 0.12 2.612 0.652 3.996 0.683 1.775 1.966 3.478 4.147 4.823-1.569 0.726-3.245 1.039-4.873 0.967-0.552-0.024-1.019 0.403-1.043 0.955-0.017 0.389 0.19 0.736 0.513 0.918 4.905 2.725 10.426 2.678 14.666 0.261 4.040-2.301 6.819-6.7 6.819-12.634-0.001-0.167-0.008-0.33-0.023-0.489 1.006-1.115 1.676-2.429 1.996-3.781 0.127-0.537-0.206-1.076-0.743-1.203-0.29-0.069-0.58-0.003-0.807 0.156z"></path>
</symbol>
<symbol id="icon-play2" viewBox="0 0 32 32">
<path d="M16 0c-8.837 0-16 7.163-16 16s7.163 16 16 16 16-7.163 16-16-7.163-16-16-16zM16 29c-7.18 0-13-5.82-13-13s5.82-13 13-13 13 5.82 13 13-5.82 13-13 13zM12 9l12 7-12 7z"></path>
</symbol>
<symbol id="icon-scroll-down" viewBox="0 0 32 32">
<path d="M16.947 17.867c-0.124 0.125-0.271 0.224-0.434 0.292s-0.337 0.103-0.513 0.103-0.35-0.035-0.513-0.103c-0.162-0.068-0.31-0.167-0.434-0.292l-6.107-6.12c-0.124-0.125-0.271-0.224-0.434-0.292s-0.337-0.103-0.513-0.103c-0.176 0-0.35 0.035-0.513 0.103s-0.31 0.167-0.434 0.292c-0.248 0.25-0.388 0.588-0.388 0.94s0.139 0.69 0.388 0.94l6.12 6.12c0.75 0.749 1.767 1.17 2.827 1.17s2.077-0.421 2.827-1.17l6.12-6.12c0.246-0.248 0.385-0.584 0.387-0.933 0.001-0.175-0.033-0.349-0.099-0.512s-0.164-0.31-0.288-0.435c-0.124-0.125-0.271-0.224-0.434-0.292s-0.337-0.103-0.513-0.103-0.35 0.035-0.513 0.103c-0.162 0.068-0.31 0.167-0.434 0.292l-6.107 6.12z"></path>
</symbol>
<symbol id="icon-chocolate-bar" viewBox="0 0 30 32">
<path fill="#000" style="fill: var(--color1, #000)" d="M13.324 2.032l6.339 6.346 0.067-0.067c0.133-0.13 0.311-0.204 0.496-0.206s0.365 0.068 0.501 0.195l0.735 0.735c0.257 0.257 0.265 0.648 0.070 0.921l-0.003 0.006-0.12 0.162 5.187 5.187c0.463 0.463 0.463 1.204 0 1.667l-7.941 7.941c-0.463 0.463-1.204 0.463-1.667 0l-3.745-3.745c-0.062 0.078-0.14 0.143-0.229 0.189s-0.186 0.073-0.286 0.078c-0.1 0.006-0.2-0.010-0.293-0.046s-0.178-0.091-0.249-0.162l-2.189-2.189c-0.13-0.133-0.204-0.311-0.206-0.496s0.068-0.365 0.195-0.501l0.005-0.006 0.065-0.064-6.339-6.339c-0.463-0.463-0.463-1.204 0-1.667l7.941-7.941c0.463-0.463 1.204-0.463 1.667 0v0.001zM18.867 9.173l-1.479-1.478c-0.046-0.048-0.102-0.086-0.164-0.112s-0.128-0.039-0.194-0.039c-0.067 0-0.133 0.013-0.194 0.039s-0.117 0.064-0.164 0.112l-3.015 3.015c-0.048 0.047-0.086 0.104-0.111 0.166s-0.039 0.129-0.039 0.196 0.013 0.134 0.039 0.196c0.026 0.062 0.064 0.119 0.111 0.166l1.473 1.473 0.514-0.514-1.318-1.318 2.703-2.712 1.321 1.325 0.516-0.516zM14.592 13.444l-1.477-1.477c-0.046-0.048-0.102-0.086-0.164-0.112s-0.128-0.039-0.194-0.039c-0.067 0-0.133 0.013-0.194 0.039s-0.117 0.064-0.164 0.112l-3.023 3.023c-0.202 0.194-0.202 0.514 0 0.716l1.475 1.475 0.519-0.519-1.322-1.317 2.712-2.703 1.317 1.316 0.515-0.515zM9.113 6.899l3.015 3.015c0.202 0.202 0.522 0.202 0.716-0.008l3.015-3.015c0.048-0.046 0.086-0.101 0.112-0.161s0.040-0.126 0.040-0.192h0.008c0-0.126-0.051-0.261-0.152-0.362l-3.015-3.015c-0.047-0.048-0.104-0.086-0.166-0.112s-0.129-0.039-0.196-0.039c-0.067 0-0.134 0.013-0.196 0.039s-0.118 0.064-0.166 0.112l-3.015 3.023c-0.202 0.194-0.202 0.514 0 0.716zM4.844 11.169l3.015 3.015c0.202 0.202 0.522 0.202 0.716 0l3.015-3.015c0.049-0.047 0.088-0.103 0.114-0.165s0.039-0.129 0.038-0.197h0.008c0-0.135-0.051-0.261-0.152-0.362l-3.015-3.015c-0.046-0.048-0.102-0.086-0.164-0.112s-0.128-0.039-0.194-0.039-0.133 0.013-0.194 0.039c-0.061 0.026-0.117 0.064-0.164 0.112l-3.023 3.023c-0.202 0.194-0.202 0.514 0 0.716zM10.682 18.541l1.989 1.99 8.115-10.981-0.552-0.552-9.552 9.543z"></path>
<path fill="#fd9222" style="fill: var(--color2, #fd9222)" d="M13.324 2.032l6.339 6.346 0.067-0.067c0.133-0.13 0.311-0.204 0.496-0.206s0.365 0.068 0.501 0.195l0.735 0.735c0.257 0.257 0.265 0.648 0.070 0.921l-0.003 0.006-0.12 0.162 5.187 5.187c0.463 0.463 0.463 1.204 0 1.667l-7.941 7.941c-0.463 0.463-1.204 0.463-1.667 0l-3.745-3.745c-0.062 0.078-0.14 0.143-0.229 0.189s-0.186 0.073-0.286 0.078c-0.1 0.006-0.2-0.010-0.293-0.046s-0.178-0.091-0.249-0.162l-2.189-2.189c-0.13-0.133-0.204-0.311-0.206-0.496s0.068-0.365 0.195-0.501l0.005-0.006 0.065-0.064-6.339-6.339c-0.463-0.463-0.463-1.204 0-1.667l7.941-7.941c0.463-0.463 1.204-0.463 1.667 0v0.001zM18.867 9.173l-1.479-1.478c-0.046-0.048-0.102-0.086-0.164-0.112s-0.128-0.039-0.194-0.039c-0.067 0-0.133 0.013-0.194 0.039s-0.117 0.064-0.164 0.112l-3.015 3.015c-0.048 0.047-0.086 0.104-0.111 0.166s-0.039 0.129-0.039 0.196 0.013 0.134 0.039 0.196c0.026 0.062 0.064 0.119 0.111 0.166l1.473 1.473 0.514-0.514-1.318-1.318 2.703-2.712 1.321 1.325 0.516-0.516zM14.592 13.444l-1.477-1.477c-0.046-0.048-0.102-0.086-0.164-0.112s-0.128-0.039-0.194-0.039c-0.067 0-0.133 0.013-0.194 0.039s-0.117 0.064-0.164 0.112l-3.023 3.023c-0.202 0.194-0.202 0.514 0 0.716l1.475 1.475 0.519-0.519-1.322-1.317 2.712-2.703 1.317 1.316 0.515-0.515zM9.113 6.899l3.015 3.015c0.202 0.202 0.522 0.202 0.716-0.008l3.015-3.015c0.048-0.046 0.086-0.101 0.112-0.161s0.040-0.126 0.040-0.192h0.008c0-0.126-0.051-0.261-0.152-0.362l-3.015-3.015c-0.047-0.048-0.104-0.086-0.166-0.112s-0.129-0.039-0.196-0.039c-0.067 0-0.134 0.013-0.196 0.039s-0.118 0.064-0.166 0.112l-3.015 3.023c-0.202 0.194-0.202 0.514 0 0.716zM4.844 11.169l3.015 3.015c0.202 0.202 0.522 0.202 0.716 0l3.015-3.015c0.049-0.047 0.088-0.103 0.114-0.165s0.039-0.129 0.038-0.197h0.008c0-0.135-0.051-0.261-0.152-0.362l-3.015-3.015c-0.046-0.048-0.102-0.086-0.164-0.112s-0.128-0.039-0.194-0.039-0.133 0.013-0.194 0.039c-0.061 0.026-0.117 0.064-0.164 0.112l-3.023 3.023c-0.202 0.194-0.202 0.514 0 0.716zM10.682 18.541l1.989 1.99 8.115-10.981-0.552-0.552-9.552 9.543z"></path>
</symbol>
<symbol id="icon-coin" viewBox="0 0 30 32">
<path fill="#fd9222" style="fill: var(--color2, #fd9222)" d="M15.158 2.246c-6.176 0-11.228 5.053-11.228 11.228s5.053 11.228 11.228 11.228c6.175 0 11.228-5.053 11.228-11.228s-5.053-11.228-11.228-11.228zM15.158 22.456c-4.94 0-8.982-4.042-8.982-8.982s4.042-8.982 8.982-8.982c4.94 0 8.982 4.042 8.982 8.982s-4.042 8.982-8.982 8.982z"></path>
<path fill="#fd9222" style="fill: var(--color2, #fd9222)" d="M16.618 12.351h-2.919c-0.561 0-1.011-0.449-1.011-1.011s0.449-1.011 1.011-1.011h4.154c0.674 0 1.123-0.449 1.123-1.123s-0.449-1.123-1.123-1.123h-1.572v-1.011c0-0.674-0.449-1.123-1.123-1.123s-1.123 0.449-1.123 1.123v1.011h-0.337c-1.796 0-3.256 1.46-3.256 3.256s1.46 3.256 3.256 3.256h2.807c0.561 0 1.011 0.449 1.011 1.011s-0.449 1.011-1.011 1.011h-4.154c-0.674 0-1.123 0.449-1.123 1.123s0.449 1.123 1.123 1.123h1.684v1.011c0 0.674 0.449 1.123 1.123 1.123s1.123-0.449 1.123-1.123v-1.011h0.337c1.796 0 3.256-1.46 3.256-3.256s-1.46-3.256-3.256-3.256z"></path>
</symbol>
<symbol id="icon-spoon" viewBox="0 0 32 32">
<path fill="#fd9222" style="fill: var(--color2, #fd9222)" d="M15.452 14.106c-0.783-0.95-1.177-2.116-1.177-3.282 0-4.324 5.181-8.642 10.362-8.642 2.86 0 5.181 2.321 5.181 5.182 0 5.182-4.318 10.364-8.646 10.364-1.166 0-2.332-0.394-3.281-1.177l-12.758 12.761c-0.675 0.675-1.77 0.675-2.445 0s-0.675-1.771 0-2.445l12.764-12.761z"></path>
</symbol>
<symbol id="icon-close" viewBox="0 0 20 20">
<path d="M10 8.586l-7.071-7.071-1.414 1.414 7.071 7.071-7.071 7.071 1.414 1.414 7.071-7.071 7.071 7.071 1.414-1.414-7.071-7.071 7.071-7.071-1.414-1.414-7.071 7.071z"></path>
</symbol>
<symbol id="icon-user" viewBox="0 0 24 24">
<path d="M21 21v-2c0-1.38-0.561-2.632-1.464-3.536s-2.156-1.464-3.536-1.464h-8c-1.38 0-2.632 0.561-3.536 1.464s-1.464 2.156-1.464 3.536v2c0 0.552 0.448 1 1 1s1-0.448 1-1v-2c0-0.829 0.335-1.577 0.879-2.121s1.292-0.879 2.121-0.879h8c0.829 0 1.577 0.335 2.121 0.879s0.879 1.292 0.879 2.121v2c0 0.552 0.448 1 1 1s1-0.448 1-1zM17 7c0-1.38-0.561-2.632-1.464-3.536s-2.156-1.464-3.536-1.464-2.632 0.561-3.536 1.464-1.464 2.156-1.464 3.536 0.561 2.632 1.464 3.536 2.156 1.464 3.536 1.464 2.632-0.561 3.536-1.464 1.464-2.156 1.464-3.536zM15 7c0 0.829-0.335 1.577-0.879 2.121s-1.292 0.879-2.121 0.879-1.577-0.335-2.121-0.879-0.879-1.292-0.879-2.121 0.335-1.577 0.879-2.121 1.292-0.879 2.121-0.879 1.577 0.335 2.121 0.879 0.879 1.292 0.879 2.121z"></path>
</symbol>
<symbol id="icon-mail" viewBox="0 0 24 24">
<path d="M3 7.921l8.427 5.899c0.34 0.235 0.795 0.246 1.147 0l8.426-5.899v10.079c0 0.272-0.11 0.521-0.295 0.705s-0.433 0.295-0.705 0.295h-16c-0.272 0-0.521-0.11-0.705-0.295s-0.295-0.433-0.295-0.705zM1 5.983c0 0.010 0 0.020 0 0.030v11.987c0 0.828 0.34 1.579 0.88 2.12s1.292 0.88 2.12 0.88h16c0.828 0 1.579-0.34 2.12-0.88s0.88-1.292 0.88-2.12v-11.988c0-0.010 0-0.020 0-0.030-0.005-0.821-0.343-1.565-0.88-2.102-0.541-0.54-1.292-0.88-2.12-0.88h-16c-0.828 0-1.579 0.34-2.12 0.88-0.537 0.537-0.875 1.281-0.88 2.103zM20.894 5.554l-8.894 6.225-8.894-6.225c0.048-0.096 0.112-0.183 0.188-0.259 0.185-0.185 0.434-0.295 0.706-0.295h16c0.272 0 0.521 0.11 0.705 0.295 0.076 0.076 0.14 0.164 0.188 0.259z"></path>
</symbol>
<symbol id="icon-phone" viewBox="0 0 24 24">
<path d="M23 16.92c0.016-0.714-0.236-1.404-0.673-1.943-0.46-0.566-1.129-0.967-1.925-1.080-0.8-0.098-1.695-0.314-2.586-0.646-0.433-0.159-0.893-0.218-1.344-0.174-0.663 0.064-1.307 0.349-1.819 0.855l-0.72 0.72c-1.77-1.117-3.36-2.667-4.583-4.589l0.726-0.726c0.322-0.33 0.563-0.726 0.707-1.156 0.212-0.632 0.214-1.336-0.039-2.011-0.289-0.753-0.518-1.644-0.644-2.595-0.104-0.714-0.456-1.345-0.963-1.804-0.539-0.486-1.256-0.779-2.027-0.771h-2.996c-0.088 0-0.182 0.004-0.273 0.012-0.824 0.075-1.542 0.478-2.033 1.066s-0.758 1.367-0.683 2.199c0.3 3.076 1.365 6.243 3.216 9.102 1.502 2.413 3.648 4.623 6.298 6.306 2.568 1.697 5.684 2.862 9.086 3.231 0.092 0.009 0.191 0.013 0.288 0.013 0.828-0.003 1.578-0.343 2.118-0.887s0.873-1.297 0.87-2.121zM21 16.92v3c0.001 0.28-0.109 0.53-0.29 0.712s-0.429 0.295-0.706 0.296c-3.149-0.336-5.961-1.391-8.263-2.912-2.428-1.543-4.359-3.537-5.702-5.694-1.697-2.62-2.655-5.481-2.924-8.238-0.024-0.268 0.064-0.526 0.229-0.724s0.403-0.33 0.678-0.355l3.088-0.005c0.271-0.003 0.507 0.094 0.687 0.256 0.17 0.154 0.288 0.366 0.323 0.608 0.142 1.072 0.408 2.117 0.757 3.025 0.081 0.216 0.080 0.447 0.010 0.658-0.049 0.145-0.131 0.281-0.242 0.395l-1.262 1.261c-0.324 0.324-0.379 0.814-0.162 1.201 1.584 2.785 3.839 4.957 6.381 6.378 0.397 0.222 0.882 0.144 1.195-0.166l1.27-1.27c0.166-0.164 0.377-0.257 0.598-0.279 0.152-0.015 0.31 0.005 0.459 0.060 1.022 0.381 2.070 0.636 3.034 0.754 0.241 0.034 0.462 0.166 0.615 0.355 0.147 0.181 0.231 0.412 0.226 0.682z"></path>
</symbol>
<symbol id="icon-checkmark" viewBox="0 0 32 32">
<path d="M12.636 31.213c1.395 0 2.449-0.536 3.163-1.607l15.448-23.28c0.257-0.379 0.446-0.753 0.569-1.121 0.123-0.379 0.184-0.742 0.184-1.088 0-0.96-0.335-1.752-1.004-2.377-0.658-0.636-1.473-0.954-2.444-0.954-0.669 0-1.238 0.134-1.707 0.402-0.457 0.257-0.893 0.703-1.305 1.339l-12.971 20.368-6.494-7.782c-0.703-0.815-1.584-1.222-2.644-1.222-0.993 0-1.813 0.318-2.46 0.954s-0.971 1.434-0.971 2.393c0 0.435 0.067 0.848 0.201 1.238 0.145 0.379 0.407 0.775 0.787 1.188l8.619 10.159c0.792 0.926 1.802 1.389 3.029 1.389z"></path>
</symbol>
</defs>
</svg>
