<svg aria-hidden="true" style="position:absolute;width:0;height:0;overflow:hidden" xmlns="http://www.w3.org/2000/svg">
  <defs>
    <symbol id="icon-chocolate" viewBox="0 0 32 32">
      <path fill="#fcf1e0" style="fill:var(--color1, #fcf1e0)" d="M3.944 20.076 14.721 2.652l.64-.674 8.236 5.491.056 3.314 2.01 3.28-8.88 14.077-12.839-8.063z"/>
      <path fill="none" stroke="#fd9222" style="stroke:var(--color2, #fd9222)" stroke-linejoin="round" stroke-linecap="round" stroke-width="2.667" d="M21.635 23.88 7.45 15.016m3.911-6.417 14.186 8.864M10.63 25.864l11.736-19.25m4.81 8.175c-3.04-1.899-4.234-3.384-2.278-6.592l-9.626-6.015-11.736 19.25 14.185 8.864 9.454-15.507z"/>
    </symbol>
    <symbol id="icon-phone-menu" viewBox="0 0 32 32">
      <path d="M4.799 8.001a1.6 1.6 0 0 1 1.6-1.6h19.2a1.6 1.6 0 0 1 0 3.2h-19.2a1.6 1.6 0 0 1-1.6-1.6zM4.799 16.001a1.6 1.6 0 0 1 1.6-1.6h19.2a1.6 1.6 0 0 1 0 3.2h-19.2a1.6 1.6 0 0 1-1.6-1.6zM4.799 24.001a1.6 1.6 0 0 1 1.6-1.6h19.2a1.6 1.6 0 0 1 0 3.2h-19.2a1.6 1.6 0 0 1-1.6-1.6z"/>
    </symbol>
    <symbol id="icon-instagram" viewBox="0 0 32 32">
      <path d="M16 2.881c4.275 0 4.781.019 6.462.094 1.563.069 2.406.331 2.969.55a4.952 4.952 0 0 1 1.837 1.194 5.015 5.015 0 0 1 1.2 1.838c.219.563.481 1.412.55 2.969.075 1.688.094 2.194.094 6.463s-.019 4.781-.094 6.463c-.069 1.563-.331 2.406-.55 2.969a4.94 4.94 0 0 1-1.194 1.837 5.02 5.02 0 0 1-1.837 1.2c-.563.219-1.413.481-2.969.55-1.688.075-2.194.094-6.463.094s-4.781-.019-6.463-.094c-1.563-.069-2.406-.331-2.969-.55a4.952 4.952 0 0 1-1.838-1.194 5.02 5.02 0 0 1-1.2-1.837c-.219-.563-.481-1.413-.55-2.969-.075-1.688-.094-2.194-.094-6.463s.019-4.781.094-6.463c.069-1.563.331-2.406.55-2.969a4.964 4.964 0 0 1 1.194-1.838 5.015 5.015 0 0 1 1.838-1.2c.563-.219 1.412-.481 2.969-.55 1.681-.075 2.188-.094 6.463-.094zM16 0c-4.344 0-4.887.019-6.594.094-1.7.075-2.869.35-3.881.744-1.056.412-1.95.956-2.837 1.85a7.833 7.833 0 0 0-1.85 2.831C.444 6.538.169 7.7.094 9.4.019 11.113 0 11.656 0 16s.019 4.887.094 6.594c.075 1.7.35 2.869.744 3.881.413 1.056.956 1.95 1.85 2.837a7.82 7.82 0 0 0 2.831 1.844c1.019.394 2.181.669 3.881.744 1.706.075 2.25.094 6.594.094s4.888-.019 6.594-.094c1.7-.075 2.869-.35 3.881-.744 1.05-.406 1.944-.956 2.831-1.844s1.438-1.781 1.844-2.831c.394-1.019.669-2.181.744-3.881.075-1.706.094-2.25.094-6.594s-.019-4.887-.094-6.594c-.075-1.7-.35-2.869-.744-3.881a7.506 7.506 0 0 0-1.831-2.844A7.82 7.82 0 0 0 26.482.843C25.463.449 24.301.174 22.601.099c-1.712-.081-2.256-.1-6.6-.1z"/>
      <path d="M16 7.781c-4.537 0-8.219 3.681-8.219 8.219s3.681 8.219 8.219 8.219 8.219-3.681 8.219-8.219A8.221 8.221 0 0 0 16 7.781zm0 13.55a5.331 5.331 0 1 1 0-10.663 5.331 5.331 0 0 1 0 10.663zM26.462 7.456a1.919 1.919 0 1 1-3.838 0 1.919 1.919 0 0 1 3.838 0z"/>
    </symbol>
    <symbol id="icon-twitter" viewBox="0 0 24 24">
      <path d="M20.833 5.262a6.685 6.685 0 0 1-.616.696.997.997 0 0 0-.278.908c.037.182.06.404.061.634 0 5.256-2.429 8.971-5.81 10.898-2.647 1.509-5.938 1.955-9.222 1.12a12.682 12.682 0 0 0 3.593-1.69 1 1 0 0 0-.156-1.741c-2.774-1.233-4.13-2.931-4.769-4.593-.417-1.084-.546-2.198-.52-3.227.021-.811.138-1.56.278-2.182.394.343.803.706 1.235 1.038a11.59 11.59 0 0 0 7.395 2.407c.543-.015.976-.457.976-1V7.519a3.459 3.459 0 0 1 1.196-2.674c.725-.631 1.636-.908 2.526-.846s1.753.463 2.384 1.188a1 1 0 0 0 1.033.304c.231-.067.463-.143.695-.228zm1.591-3.079a9.884 9.884 0 0 1-2.287 1.205 5.469 5.469 0 0 0-3.276-1.385 5.465 5.465 0 0 0-3.977 1.332A5.464 5.464 0 0 0 11 7.507a9.589 9.589 0 0 1-5.15-1.97 9.87 9.87 0 0 1-2.034-2.116 1 1 0 0 0-1.729.172s-.132.299-.285.76a13.57 13.57 0 0 0-.357 1.29 13.224 13.224 0 0 0-.326 2.571c-.031 1.227.12 2.612.652 3.996.683 1.775 1.966 3.478 4.147 4.823A10.505 10.505 0 0 1 1.045 18a1 1 0 0 0-.53 1.873c4.905 2.725 10.426 2.678 14.666.261C19.221 17.833 22 13.434 22 7.5a5.565 5.565 0 0 0-.023-.489 8.626 8.626 0 0 0 1.996-3.781 1 1 0 0 0-1.55-1.047z"/>
    </symbol>
    <symbol id="icon-play2" viewBox="0 0 32 32">
      <path d="M16 0C7.163 0 0 7.163 0 16s7.163 16 16 16 16-7.163 16-16S24.837 0 16 0zm0 29C8.82 29 3 23.18 3 16S8.82 3 16 3s13 5.82 13 13-5.82 13-13 13zM12 9l12 7-12 7z"/>
    </symbol>
    <symbol id="icon-scroll-down" viewBox="0 0 32 32">
      <path d="M16.947 17.867a1.334 1.334 0 0 1-1.894 0l-6.107-6.12a1.334 1.334 0 1 0-1.894 1.88l6.12 6.12a4.001 4.001 0 0 0 5.654 0l6.12-6.12a1.337 1.337 0 0 0-.434-2.172 1.331 1.331 0 0 0-1.46.292l-6.107 6.12z"/>
    </symbol>
    <symbol id="icon-chocolate-bar" viewBox="0 0 30 32">
      <path style="fill:var(--color1, #000)" d="m13.324 2.032 6.339 6.346.067-.067a.722.722 0 0 1 .997-.011l.735.735a.714.714 0 0 1 .07.921l-.003.006-.12.162 5.187 5.187a1.174 1.174 0 0 1 0 1.667l-7.941 7.941a1.174 1.174 0 0 1-1.667 0l-3.745-3.745a.71.71 0 0 1-1.057.059l-2.189-2.189a.722.722 0 0 1-.011-.997l.005-.006.065-.064-6.339-6.339a1.174 1.174 0 0 1 0-1.667l7.941-7.941a1.174 1.174 0 0 1 1.667 0v.001zm5.543 7.141-1.479-1.478a.489.489 0 0 0-.358-.151.494.494 0 0 0-.358.151l-3.015 3.015a.527.527 0 0 0-.111.558.52.52 0 0 0 .111.166l1.473 1.473.514-.514-1.318-1.318 2.703-2.712 1.321 1.325.516-.516zm-4.275 4.271-1.477-1.477a.489.489 0 0 0-.358-.151.494.494 0 0 0-.358.151L9.376 14.99a.499.499 0 0 0 0 .716l1.475 1.475.519-.519-1.322-1.317 2.712-2.703 1.317 1.316.515-.515zM9.113 6.899l3.015 3.015a.492.492 0 0 0 .716-.008l3.015-3.015a.497.497 0 0 0 .152-.353h.008a.519.519 0 0 0-.152-.362l-3.015-3.015a.507.507 0 0 0-.724 0L9.113 6.184a.499.499 0 0 0 0 .716zm-4.269 4.27 3.015 3.015a.499.499 0 0 0 .716 0l3.015-3.015a.494.494 0 0 0 .152-.362h.008a.503.503 0 0 0-.152-.362L8.583 7.43a.489.489 0 0 0-.358-.151.498.498 0 0 0-.358.151l-3.023 3.023a.499.499 0 0 0 0 .716zm5.838 7.372 1.989 1.99L20.786 9.55l-.552-.552-9.552 9.543z"/>
      <path fill="#fd9222" style="fill:var(--color2, #fd9222)" d="m13.324 2.032 6.339 6.346.067-.067a.722.722 0 0 1 .997-.011l.735.735a.714.714 0 0 1 .07.921l-.003.006-.12.162 5.187 5.187a1.174 1.174 0 0 1 0 1.667l-7.941 7.941a1.174 1.174 0 0 1-1.667 0l-3.745-3.745a.71.71 0 0 1-1.057.059l-2.189-2.189a.722.722 0 0 1-.011-.997l.005-.006.065-.064-6.339-6.339a1.174 1.174 0 0 1 0-1.667l7.941-7.941a1.174 1.174 0 0 1 1.667 0v.001zm5.543 7.141-1.479-1.478a.489.489 0 0 0-.358-.151.494.494 0 0 0-.358.151l-3.015 3.015a.527.527 0 0 0-.111.558.52.52 0 0 0 .111.166l1.473 1.473.514-.514-1.318-1.318 2.703-2.712 1.321 1.325.516-.516zm-4.275 4.271-1.477-1.477a.489.489 0 0 0-.358-.151.494.494 0 0 0-.358.151L9.376 14.99a.499.499 0 0 0 0 .716l1.475 1.475.519-.519-1.322-1.317 2.712-2.703 1.317 1.316.515-.515zM9.113 6.899l3.015 3.015a.492.492 0 0 0 .716-.008l3.015-3.015a.497.497 0 0 0 .152-.353h.008a.519.519 0 0 0-.152-.362l-3.015-3.015a.507.507 0 0 0-.724 0L9.113 6.184a.499.499 0 0 0 0 .716zm-4.269 4.27 3.015 3.015a.499.499 0 0 0 .716 0l3.015-3.015a.494.494 0 0 0 .152-.362h.008a.503.503 0 0 0-.152-.362L8.583 7.43a.489.489 0 0 0-.358-.151.498.498 0 0 0-.358.151l-3.023 3.023a.499.499 0 0 0 0 .716zm5.838 7.372 1.989 1.99L20.786 9.55l-.552-.552-9.552 9.543z"/>
    </symbol>
    <symbol id="icon-coin" viewBox="0 0 30 32">
      <path fill="#fd9222" style="fill:var(--color2, #fd9222)" d="M15.158 2.246C8.982 2.246 3.93 7.299 3.93 13.474s5.053 11.228 11.228 11.228 11.228-5.053 11.228-11.228S21.333 2.246 15.158 2.246zm0 20.21c-4.94 0-8.982-4.042-8.982-8.982s4.042-8.982 8.982-8.982c4.94 0 8.982 4.042 8.982 8.982s-4.042 8.982-8.982 8.982z"/>
      <path fill="#fd9222" style="fill:var(--color2, #fd9222)" d="M16.618 12.351h-2.919c-.561 0-1.011-.449-1.011-1.011s.449-1.011 1.011-1.011h4.154c.674 0 1.123-.449 1.123-1.123s-.449-1.123-1.123-1.123h-1.572V7.072c0-.674-.449-1.123-1.123-1.123s-1.123.449-1.123 1.123v1.011h-.337c-1.796 0-3.256 1.46-3.256 3.256s1.46 3.256 3.256 3.256h2.807c.561 0 1.011.449 1.011 1.011s-.449 1.011-1.011 1.011h-4.154c-.674 0-1.123.449-1.123 1.123s.449 1.123 1.123 1.123h1.684v1.011c0 .674.449 1.123 1.123 1.123s1.123-.449 1.123-1.123v-1.011h.337c1.796 0 3.256-1.46 3.256-3.256s-1.46-3.256-3.256-3.256z"/>
    </symbol>
    <symbol id="icon-spoon" viewBox="0 0 32 32">
      <path fill="#fd9222" style="fill:var(--color2, #fd9222)" d="M15.452 14.106a5.154 5.154 0 0 1-1.177-3.282c0-4.324 5.181-8.642 10.362-8.642a5.183 5.183 0 0 1 5.181 5.182c0 5.182-4.318 10.364-8.646 10.364a5.15 5.15 0 0 1-3.281-1.177L5.133 29.312a1.73 1.73 0 0 1-2.445-2.445l12.764-12.761z"/>
    </symbol>
    <symbol id="icon-close" viewBox="0 0 20 20">
      <path d="M10 8.586 2.929 1.515 1.515 2.929 8.586 10l-7.071 7.071 1.414 1.414L10 11.414l7.071 7.071 1.414-1.414L11.414 10l7.071-7.071-1.414-1.414L10 8.586z"/>
    </symbol>
    <symbol id="icon-user" viewBox="0 0 24 24">
      <path d="M21 21v-2c0-1.38-.561-2.632-1.464-3.536S17.38 14 16 14H8c-1.38 0-2.632.561-3.536 1.464S3 17.62 3 19v2a1 1 0 0 0 2 0v-2c0-.829.335-1.577.879-2.121S7.171 16 8 16h8c.829 0 1.577.335 2.121.879S19 18.171 19 19v2a1 1 0 0 0 2 0zM17 7c0-1.38-.561-2.632-1.464-3.536S13.38 2 12 2s-2.632.561-3.536 1.464S7 5.62 7 7s.561 2.632 1.464 3.536S10.62 12 12 12s2.632-.561 3.536-1.464S17 8.38 17 7zm-2 0c0 .829-.335 1.577-.879 2.121S12.829 10 12 10s-1.577-.335-2.121-.879S9 7.829 9 7s.335-1.577.879-2.121S11.171 4 12 4s1.577.335 2.121.879S15 6.171 15 7z"/>
    </symbol>
    <symbol id="icon-mail" viewBox="0 0 24 24">
      <path d="m3 7.921 8.427 5.899c.34.235.795.246 1.147 0L21 7.921V18c0 .272-.11.521-.295.705S20.272 19 20 19H4c-.272 0-.521-.11-.705-.295S3 18.272 3 18zM1 5.983V18c0 .828.34 1.579.88 2.12S3.172 21 4 21h16c.828 0 1.579-.34 2.12-.88S23 18.828 23 18V5.982a2.995 2.995 0 0 0-.88-2.102A2.998 2.998 0 0 0 20 3H4c-.828 0-1.579.34-2.12.88A2.995 2.995 0 0 0 1 5.983zm19.894-.429L12 11.779 3.106 5.554a.999.999 0 0 1 .188-.259A.994.994 0 0 1 4 5h16a1.016 1.016 0 0 1 .893.554z"/>
    </symbol>
    <symbol id="icon-phone" viewBox="0 0 24 24">
      <path d="M23 16.92a3.006 3.006 0 0 0-2.598-3.023c-.8-.098-1.695-.314-2.586-.646a3.045 3.045 0 0 0-1.344-.174 2.987 2.987 0 0 0-1.819.855l-.72.72a14.84 14.84 0 0 1-4.583-4.589l.726-.726c.322-.33.563-.726.707-1.156a2.992 2.992 0 0 0-.039-2.011 11.591 11.591 0 0 1-.644-2.595 3.02 3.02 0 0 0-.963-1.804A2.982 2.982 0 0 0 7.11 1H4.114a2.998 2.998 0 0 0-2.989 3.277c.3 3.076 1.365 6.243 3.216 9.102 1.502 2.413 3.648 4.623 6.298 6.306 2.568 1.697 5.684 2.862 9.086 3.231a2.994 2.994 0 0 0 2.406-.874c.54-.544.873-1.297.87-2.121zm-2 0v3a.997.997 0 0 1-.996 1.008c-3.149-.336-5.961-1.391-8.263-2.912-2.428-1.543-4.359-3.537-5.702-5.694-1.697-2.62-2.655-5.481-2.924-8.238-.024-.268.064-.526.229-.724s.403-.33.678-.355L7.11 3a.995.995 0 0 1 .687.256c.17.154.288.366.323.608.142 1.072.408 2.117.757 3.025.081.216.08.447.01.658a1.049 1.049 0 0 1-.242.395L7.383 9.203a1.001 1.001 0 0 0-.162 1.201c1.584 2.785 3.839 4.957 6.381 6.378.397.222.882.144 1.195-.166l1.27-1.27a.984.984 0 0 1 .598-.279c.152-.015.31.005.459.06 1.022.381 2.07.636 3.034.754a.976.976 0 0 1 .615.355c.147.181.231.412.226.682z"/>
    </symbol>
    <symbol id="icon-checkmark" viewBox="0 0 32 32">
      <path d="M12.636 31.213c1.395 0 2.449-.536 3.163-1.607l15.448-23.28c.257-.379.446-.753.569-1.121.123-.379.184-.742.184-1.088 0-.96-.335-1.752-1.004-2.377-.658-.636-1.473-.954-2.444-.954-.669 0-1.238.134-1.707.402-.457.257-.893.703-1.305 1.339L12.569 22.895l-6.494-7.782c-.703-.815-1.584-1.222-2.644-1.222-.993 0-1.813.318-2.46.954S0 16.279 0 17.238c0 .435.067.848.201 1.238.145.379.407.775.787 1.188l8.619 10.159c.792.926 1.802 1.389 3.029 1.389z"/>
    </symbol>
  </defs>
</svg>
